<svg id="b288216b-bdad-4a53-844d-9630c1e3b0ee" data-name="Layer 1" xmlns="http://www.w3.org/2000/svg" xmlns:xlink="http://www.w3.org/1999/xlink" viewBox="0 0 218.68 34.3"><defs><clipPath id="baca38d9-e0b7-425e-9e6d-aabe101346ad"><rect width="218.68" height="34.3" fill="none"/></clipPath></defs><title>heading-private-dining-2</title><g clip-path="url(#baca38d9-e0b7-425e-9e6d-aabe101346ad)"><path d="M205.1,14.07h12.63A12.69,12.69,0,1,1,205.06.91a12.58,12.58,0,0,1,9,3.75l.74-.6A13.75,13.75,0,0,0,205.06,0a13.62,13.62,0,1,0,13.62,13.61v-.45H205.1ZM171.25,26.74h.91V3.18l15.3,24.05V.49h-.91V24.08L171.25,0Zm-6.16,0H166V.49h-.91Zm-21.45,0h.91V3.18l15.29,24.05V.49h-.91V24.08L143.64,0Zm-6.16,0h.91V.49h-.91Zm-19.88-.91V1.4h2.76a12.22,12.22,0,1,1,0,24.43Zm-.91.91h3.67a13.13,13.13,0,1,0,0-26.25h-3.67Zm-23.24,0h13.61v-.91H94.36V13.61h11.79V12.7H94.36V1.4h12.7V.49H93.45Zm-11.13,0h.91V1.4H89.6V.49H76V1.4h6.34ZM61.53,19l5.18-16,5.14,16ZM58.1,26.74H59l2.21-6.86H72.13l2.21,6.86h.94L66.71,0ZM50,27.23,58.62.49h-.94L50,24.29,42.38.49h-.94ZM37.2,26.74h.91V.49H37.2ZM19.11,19V1.4h3.54a8.79,8.79,0,0,1,0,17.57Zm-.91,7.77h.91V19.88h3.54a9.84,9.84,0,0,0,1.43-.11C28.25,25.34,35,34.3,42.6,34.3a12.76,12.76,0,0,0,9.09-3.78l-.63-.63a11.94,11.94,0,0,1-8.46,3.5c-7.7,0-14.5-9.77-17.54-13.83A9.69,9.69,0,0,0,22.65.49H18.2ZM.91,19V1.4H4.45A8.79,8.79,0,0,1,4.45,19ZM0,26.74H.91V19.88H4.45A9.7,9.7,0,0,0,4.45.49H0Z"/></g></svg>